<?xml version="1.0" encoding="UTF-8" standalone="no"?><!DOCTYPE svg PUBLIC "-//W3C//DTD SVG 1.1//EN" "http://www.w3.org/Graphics/SVG/1.1/DTD/svg11.dtd"><svg width="1061px" height="409px" version="1.1" xmlns="http://www.w3.org/2000/svg" xmlns:xlink="http://www.w3.org/1999/xlink" xml:space="preserve" xmlns:serif="http://www.serif.com/" style="fill-rule:evenodd;clip-rule:evenodd;stroke-linejoin:round;stroke-miterlimit:2;"><g><g><path d="M85.256,38.167l0,-38.167l231.085,0l31.722,87.427l-35.849,12.898c0,0 -8.769,-30.715 -42.04,-49.254c-17.515,-9.762 -48.506,-6.71 -83.302,-6.71l0,68.86c0,0 32.881,2.147 40.231,-5.205c6.965,-6.96 5.419,-17.613 5.419,-33.48l34.814,0l0,116.825l-34.814,0c0,0 1.933,-26.476 -6.085,-34.498c-6.196,-6.193 -22.65,-4.446 -39.307,-4.446l0,69.621c0,0 -1.032,11.563 17.307,11.563c46.681,0 60.305,-2.597 79.185,-14.369c21.922,-13.67 34.834,-42.446 36.069,-45.202l5.416,-12.092l35.591,12.379l-35.591,102.382l-239.851,0l0,-37.655c0,0 7.967,0.052 15.568,-0.038c2.565,-0.032 5.259,-0.363 7.71,-1.132c1.985,-0.623 4.149,-1.416 5.649,-2.914c0.823,-0.826 1.595,-1.979 2.015,-3.068c1.013,-2.659 1.554,-5.781 1.554,-8.625l0,-78.831c0,0 -31.451,-3.902 -48.195,-3.902c-4.782,0 -26.595,-1.37 -55.866,13.716c-5.286,2.321 -7.412,2.085 -10.318,0.13c-9.153,-6.155 3.223,-31.205 3.223,-31.205l9.67,-21.407c0,0 6.063,-16.381 22.052,-17.182c13.012,-0.658 80.726,32.012 80.726,26.306l0,-54.454c0,0 0.515,-8.178 -5.933,-14.626c-4.087,-4.089 -14.764,-3.645 -27.855,-3.645" style="fill:#39b54a;fill-rule:nonzero;"/><path d="M381.203,38.178l0,-38.178l135.139,0l0.192,38.3c0,0 -13.326,-0.003 -21.77,1.245c-8.598,1.271 -11.95,8.42 -11.947,15.138l0,123.79c0,0 -2.321,56.725 51.837,56.725c42.232,0 51.58,-38.091 51.58,-57.77l0,-123.525c0,0 0.845,-6.537 -4.514,-11.896c-3.399,-3.401 -18.093,-4.081 -28.757,-4.081l0,-37.926l114.255,0l0,38.183c0,0 -14.51,-0.975 -23.988,1.471c-6.851,1.768 -9.538,7.932 -9.538,12.457l0,128.672c0,0 0.834,100.826 -108.061,100.826c-84.981,0 -111.03,-58.778 -111.03,-92.824l0.13,-134.364c0,0 0.444,-10.372 -6.318,-13.993c-4.129,-2.209 -16.402,-2.245 -27.21,-2.25" style="fill:#39b54a;fill-rule:nonzero;"/><path d="M968.967,228.053c-28.84,-28.835 -86.08,-101.939 -86.08,-101.939c0,0 53.489,-57.153 76.989,-79.305c12.089,-11.398 33.851,-8.703 33.851,-8.703l0,-38.105l-124.375,0l0,38.105c25.144,0 23.595,2.903 23.595,2.903c0,0 1.338,-0.545 1.338,4.097c0,2.513 -3.656,7.119 -3.656,7.119l-36.753,38.3l-33.269,-41.008c-2.83,-2.827 -1.519,-7.964 0.195,-9.667c2.354,-2.356 23.595,-1.744 23.595,-1.744l0,-38.105l-149.326,0l0,38.105c8.695,0 22.338,-0.287 31.722,9.09c22.631,22.632 79.183,92.288 79.183,92.288c0,0 -46.248,48.861 -77.25,79.862c-6.802,6.803 -12.451,12.671 -19.305,15.563c-12.444,5.251 -24.605,3.976 -24.605,3.976l0,37.912l125.344,0l0,-37.912l-14.507,0c-1.931,0 -17.795,-1.354 -8.512,-13.54c3.524,-4.618 47.583,-49.709 47.583,-49.709c10.889,11.975 19.506,23.094 25.922,30.563c23.462,27.308 19.411,29.656 17.02,30.942c-5.024,2.711 -26.498,1.933 -26.498,1.933l0,37.723l151.257,0l0,-37.912c-8.097,0 -23.847,-1.219 -33.458,-10.832" style="fill:#39b54a;fill-rule:nonzero;"/><path d="M1060.95,19.068c0,2.692 -0.474,5.205 -1.422,7.539c-0.948,2.333 -2.306,4.369 -4.075,6.108c-1.769,1.74 -3.843,3.078 -6.221,4.014c-2.379,0.937 -4.914,1.405 -7.605,1.405c-2.658,0 -5.159,-0.451 -7.503,-1.354c-2.345,-0.904 -4.41,-2.212 -6.196,-3.927c-1.786,-1.714 -3.17,-3.759 -4.152,-6.134c-0.981,-2.375 -1.472,-4.925 -1.472,-7.651c0,-2.727 0.491,-5.277 1.472,-7.652c0.982,-2.375 2.37,-4.42 4.165,-6.134c1.794,-1.715 3.859,-3.023 6.195,-3.926c2.336,-0.904 4.833,-1.355 7.491,-1.355c2.691,0 5.226,0.468 7.605,1.405c2.378,0.936 4.452,2.274 6.221,4.014c1.769,1.739 3.127,3.776 4.075,6.109c0.948,2.333 1.422,4.846 1.422,7.539Zm-3.809,0c0,-3.044 -0.656,-5.783 -1.968,-8.217c-1.311,-2.433 -3.161,-4.327 -5.548,-5.682c-2.387,-1.355 -5.061,-2.032 -8.024,-2.032c-2.962,0 -5.628,0.669 -7.998,2.007c-2.37,1.338 -4.211,3.232 -5.523,5.682c-1.312,2.45 -1.968,5.198 -1.968,8.242c0,3.06 0.656,5.816 1.968,8.266c1.312,2.45 3.153,4.344 5.523,5.682c2.37,1.338 5.036,2.007 7.998,2.007c2.98,0 5.663,-0.677 8.05,-2.032c2.387,-1.354 4.232,-3.253 5.535,-5.695c1.304,-2.441 1.955,-5.184 1.955,-8.228Zm-15.92,10.913l-9.624,0l0,-1.531c0.643,-0.15 1.083,-0.322 1.32,-0.514c0.237,-0.192 0.398,-0.447 0.483,-0.765c0.085,-0.318 0.127,-0.895 0.127,-1.731l0,-12.92c0,-0.82 -0.042,-1.389 -0.127,-1.706c-0.085,-0.318 -0.241,-0.573 -0.47,-0.765c-0.228,-0.193 -0.673,-0.373 -1.333,-0.54l0,-1.53l10.462,0c3.08,0 5.315,0.476 6.703,1.43c1.388,0.953 2.082,2.383 2.082,4.29c0,1.338 -0.432,2.513 -1.295,3.525c-0.863,1.012 -2.141,1.819 -3.834,2.421l0,0.326c0.948,0.351 1.727,0.857 2.336,1.518c0.609,0.66 1.143,1.534 1.6,2.621l0.787,1.832c0.271,0.635 0.516,1.108 0.736,1.417c0.22,0.31 0.474,0.552 0.762,0.728c0.288,0.175 0.669,0.297 1.143,0.363l0,1.531l-6.551,0c-0.373,-0.586 -0.707,-1.158 -1.003,-1.719c-0.297,-0.56 -0.606,-1.225 -0.927,-1.994l-1.27,-3.011c-0.152,-0.368 -0.338,-0.736 -0.558,-1.104c-0.221,-0.368 -0.462,-0.66 -0.724,-0.878c-0.263,-0.217 -0.555,-0.359 -0.876,-0.426c-0.322,-0.067 -0.753,-0.101 -1.295,-0.101l-0.787,0l0,4.692c0,0.719 0.05,1.258 0.152,1.618c0.102,0.36 0.292,0.644 0.571,0.853c0.28,0.209 0.749,0.389 1.41,0.539l0,1.531Zm-2.133,-19.544l0,7.928l1.396,0c0.965,0 1.761,-0.113 2.387,-0.339c0.626,-0.225 1.122,-0.526 1.486,-0.903c0.363,-0.376 0.613,-0.819 0.749,-1.329c0.135,-0.51 0.203,-1.05 0.203,-1.619c0,-1.237 -0.339,-2.178 -1.016,-2.822c-0.677,-0.644 -1.769,-0.966 -3.276,-0.966c-0.744,0 -1.388,0.017 -1.929,0.05Z" style="fill:#39b54a;fill-rule:nonzero;"/></g><text x="80.777px" y="388.427px" style="font-family:'Cambria-Bold', 'Cambria', serif;font-weight:700;font-size:105.768px;fill:#53565a;">S<tspan x="136.431px 174.783px 229.146px 298.123px 360.594px 451.469px 489.821px 514.488px 575.77px 646.091px 670.758px 740.51px 811.863px 850.216px 908.296px 945.719px " y="388.427px 388.427px 388.427px 388.427px 388.427px 388.427px 388.427px 388.427px 388.427px 388.427px 388.427px 388.427px 388.427px 388.427px 388.427px 388.427px ">ISTEMI ZA GRILJE</tspan></text></g></svg>